<svg
  xmlns="http://www.w3.org/2000/svg"
  xmlns:xlink="http://www.w3.org/1999/xlink"
  version="1.1"
  x="0px"
  y="0px"
  viewBox="0 0 100 100"
  enable-background="new 0 0 100 100"
  xml:space="preserve"
>
  <g>
    <path
      d="M49.139,10.96c-21.34,0-38.639,17.298-38.639,38.638c0,8.821,2.958,16.95,7.934,23.455   c5.673,7.416,13.972,12.715,23.51,14.514c0.524,0.098,1.051,0.186,1.583,0.264c1.832,0.268,3.704,0.406,5.611,0.406   c12.36,0,23.363-5.805,30.437-14.836c5.138-6.56,8.2-14.823,8.2-23.802C87.775,28.258,70.479,10.96,49.139,10.96z M76.154,57.247   c-3.01,0-5.459-2.444-5.459-5.451c0-3.008,2.449-5.455,5.459-5.455s5.457,2.448,5.457,5.455S79.165,57.247,76.154,57.247z    M35.347,82.247c-4.218-1.784-8.008-4.341-11.263-7.595c-2.187-2.188-4.056-4.615-5.589-7.254   c0.559-11.582,4.643-18.066,12.729-20.311c0.292-0.082,0.509-0.322,0.567-0.621c0.055-0.297-0.065-0.599-0.309-0.781   c-2.702-1.996-4.25-5.041-4.25-8.356c0-5.75,4.674-10.427,10.426-10.427c5.748,0,10.425,4.677,10.425,10.427   c0,3.31-1.55,6.357-4.257,8.356c-0.244,0.182-0.364,0.484-0.309,0.781c0.055,0.299,0.277,0.54,0.567,0.621   c1.532,0.423,2.982,1.009,4.364,1.705c-5.322,4.536-6.409,12.236-6.502,20.291c-0.001,0.083-0.001,8.844-0.002,15.217   C39.69,83.836,37.486,83.15,35.347,82.247z M74.191,74.652c-3.256,3.254-7.045,5.811-11.262,7.595   c-4.367,1.847-9.008,2.782-13.792,2.782c-1.896,0-3.769-0.149-5.611-0.44c0-6.396,0.001-15.421,0.001-15.505   c0.133-11.355,2.292-19.409,11.625-21.996l1.564-0.436l-1.305-0.966c-2.702-1.996-4.253-5.041-4.253-8.356   c0-5.75,4.678-10.427,10.427-10.427S72.014,31.58,72.014,37.33c0,3.31-1.552,6.357-4.259,8.356l-1.305,0.966l1.565,0.436   c0.815,0.227,1.562,0.513,2.272,0.823c-0.741,1.115-1.181,2.45-1.181,3.885c0,3.878,3.16,7.035,7.045,7.035   c0.81,0,1.576-0.165,2.301-0.416c0.686,2.751,1.001,5.896,1.096,9.38C78.061,70.279,76.27,72.575,74.191,74.652z M63.604,40.299   c-0.646,2.005-2.494,3.352-4.603,3.352c-2.119,0-3.972-1.355-4.608-3.375c-0.133-0.422,0.102-0.872,0.522-1.005   c0.421-0.134,0.873,0.1,1.006,0.522c0.427,1.349,1.664,2.255,3.08,2.255c1.409,0,2.646-0.901,3.077-2.24   c0.134-0.421,0.586-0.654,1.007-0.519C63.507,39.426,63.738,39.878,63.604,40.299z M39.898,43.651   c-2.119,0-3.971-1.355-4.609-3.375c-0.134-0.422,0.1-0.872,0.522-1.005c0.422-0.134,0.872,0.1,1.005,0.522   c0.427,1.349,1.665,2.255,3.082,2.255c1.409,0,2.645-0.901,3.075-2.24c0.136-0.421,0.588-0.654,1.009-0.519   c0.421,0.136,0.652,0.588,0.517,1.009C43.855,42.305,42.006,43.651,39.898,43.651z"
    />
  </g>
</svg>
